<svg xmlns="http://www.w3.org/2000/svg" width="144" height="20" fill="none" viewBox="0 0 144 20"><g clip-path="url(#clip0_5_2)"><path fill="url(#paint0_linear_5_2)" fill-rule="evenodd" d="M11.1906 0L0 19.704H6.20132L17.3929 0H11.1906Z" clip-rule="evenodd"/><path fill="url(#paint1_linear_5_2)" fill-rule="evenodd" d="M18.8246 0L7.63303 19.704H13.8343L25.0259 0H18.8246Z" clip-rule="evenodd" opacity=".5"/><path fill="url(#paint2_linear_5_2)" fill-rule="evenodd" d="M26.4577 0L15.2671 19.704H21.4684L32.659 0H26.4577Z" clip-rule="evenodd" opacity=".15"/><path fill="#2D314D" d="M37.8324 16.1619C37.1712 16.1619 36.5864 16.054 36.0781 15.8381C35.5743 15.6177 35.1785 15.2848 34.8906 14.8395C34.6027 14.3942 34.4588 13.8274 34.4588 13.1392C34.4588 12.5724 34.5555 12.0889 34.7489 11.6886C34.9424 11.2837 35.2122 10.9531 35.5586 10.6967C35.9049 10.4403 36.3075 10.2447 36.7663 10.1097C37.2296 9.97479 37.7289 9.88707 38.2642 9.84659C38.8445 9.80161 39.31 9.74763 39.6609 9.68466C40.0162 9.61719 40.2726 9.52498 40.43 9.40803C40.5875 9.28658 40.6662 9.12689 40.6662 8.92898V8.90199C40.6662 8.6321 40.5627 8.42519 40.3558 8.28125C40.1489 8.13731 39.8835 8.06534 39.5597 8.06534C39.2043 8.06534 38.9142 8.14406 38.6893 8.30149C38.4689 8.45443 38.3362 8.69058 38.2912 9.00994H34.8636C34.9086 8.38021 35.1088 7.79995 35.4641 7.26918C35.824 6.7339 36.348 6.30658 37.0362 5.98722C37.7244 5.66335 38.5836 5.50142 39.6136 5.50142C40.3558 5.50142 41.0215 5.58913 41.6108 5.76456C42.2 5.93549 42.7016 6.17614 43.1154 6.48651C43.5292 6.79238 43.8441 7.15223 44.06 7.56605C44.2804 7.97538 44.3906 8.42069 44.3906 8.90199V16H40.9091V14.5426H40.8281C40.6212 14.9295 40.3693 15.2421 40.0724 15.4805C39.7801 15.7189 39.445 15.892 39.0671 16C38.6938 16.108 38.2822 16.1619 37.8324 16.1619ZM39.0469 13.8139C39.3303 13.8139 39.5956 13.7554 39.843 13.6385C40.0949 13.5215 40.2996 13.3529 40.457 13.1325C40.6145 12.9121 40.6932 12.6444 40.6932 12.3295V11.4659C40.5942 11.5064 40.4885 11.5446 40.3761 11.5806C40.2681 11.6166 40.1512 11.6503 40.0252 11.6818C39.9038 11.7133 39.7733 11.7425 39.6339 11.7695C39.4989 11.7965 39.3572 11.8213 39.2088 11.8438C38.9209 11.8887 38.6848 11.9629 38.5004 12.0664C38.3204 12.1654 38.1855 12.2891 38.0955 12.4375C38.0101 12.5814 37.9673 12.7434 37.9673 12.9233C37.9673 13.2112 38.0685 13.4316 38.271 13.5845C38.4734 13.7375 38.732 13.8139 39.0469 13.8139ZM51.1631 16.1889C50.0386 16.1889 49.076 15.9663 48.2753 15.521C47.4746 15.0711 46.8606 14.4459 46.4333 13.6452C46.006 12.8401 45.7923 11.9067 45.7923 10.8452C45.7923 9.78362 46.006 8.85251 46.4333 8.05185C46.8606 7.24669 47.4746 6.62145 48.2753 6.17614C49.076 5.72633 50.0386 5.50142 51.1631 5.50142C52.1797 5.50142 53.059 5.68584 53.8012 6.05469C54.5479 6.41903 55.1259 6.93632 55.5352 7.60653C55.9446 8.27225 56.1515 9.05492 56.156 9.95455H52.7014C52.652 9.41027 52.4945 8.99645 52.2291 8.71307C51.9682 8.42519 51.6309 8.28125 51.2171 8.28125C50.8932 8.28125 50.6098 8.37571 50.3669 8.56463C50.124 8.74905 49.9351 9.03018 49.8002 9.40803C49.6652 9.78137 49.5977 10.2514 49.5977 10.8182C49.5977 11.3849 49.6652 11.8572 49.8002 12.2351C49.9351 12.6084 50.124 12.8896 50.3669 13.0785C50.6098 13.2629 50.8932 13.3551 51.2171 13.3551C51.4914 13.3551 51.7343 13.2921 51.9458 13.1662C52.1572 13.0357 52.3281 12.8468 52.4585 12.5994C52.5935 12.3475 52.6744 12.0417 52.7014 11.6818H56.156C56.1425 12.5949 55.9333 13.3911 55.5285 14.0703C55.1237 14.745 54.5502 15.2668 53.808 15.6357C53.0703 16.0045 52.1887 16.1889 51.1631 16.1889ZM62.6855 16.1889C61.561 16.1889 60.5984 15.9663 59.7978 15.521C58.9971 15.0711 58.3831 14.4459 57.9558 13.6452C57.5285 12.8401 57.3148 11.9067 57.3148 10.8452C57.3148 9.78362 57.5285 8.85251 57.9558 8.05185C58.3831 7.24669 58.9971 6.62145 59.7978 6.17614C60.5984 5.72633 61.561 5.50142 62.6855 5.50142C63.7021 5.50142 64.5815 5.68584 65.3237 6.05469C66.0704 6.41903 66.6484 6.93632 67.0577 7.60653C67.467 8.27225 67.6739 9.05492 67.6784 9.95455H64.2239C64.1744 9.41027 64.017 8.99645 63.7516 8.71307C63.4907 8.42519 63.1534 8.28125 62.7395 8.28125C62.4157 8.28125 62.1323 8.37571 61.8894 8.56463C61.6465 8.74905 61.4576 9.03018 61.3226 9.40803C61.1877 9.78137 61.1202 10.2514 61.1202 10.8182C61.1202 11.3849 61.1877 11.8572 61.3226 12.2351C61.4576 12.6084 61.6465 12.8896 61.8894 13.0785C62.1323 13.2629 62.4157 13.3551 62.7395 13.3551C63.0139 13.3551 63.2568 13.2921 63.4682 13.1662C63.6796 13.0357 63.8506 12.8468 63.981 12.5994C64.1159 12.3475 64.1969 12.0417 64.2239 11.6818H67.6784C67.665 12.5949 67.4558 13.3911 67.051 14.0703C66.6461 14.745 66.0726 15.2668 65.3304 15.6357C64.5927 16.0045 63.7111 16.1889 62.6855 16.1889ZM74.181 16.1889C73.0745 16.1889 72.1209 15.9775 71.3202 15.5547C70.5241 15.1274 69.9101 14.5156 69.4782 13.7195C69.0509 12.9188 68.8373 11.9607 68.8373 10.8452C68.8373 9.77462 69.0532 8.83901 69.485 8.03835C69.9168 7.23769 70.5263 6.6147 71.3135 6.16939C72.1006 5.72408 73.0295 5.50142 74.1001 5.50142C74.8827 5.50142 75.5912 5.62287 76.2254 5.86577C76.8596 6.10866 77.4017 6.46177 77.8515 6.92507C78.3013 7.38388 78.6476 7.94164 78.8905 8.59837C79.1334 9.25509 79.2549 9.99503 79.2549 10.8182V11.6818H69.9978V9.63068H75.8273C75.8228 9.33381 75.7464 9.07292 75.5979 8.84801C75.454 8.61861 75.2583 8.44093 75.0109 8.31499C74.768 8.18454 74.4914 8.11932 74.181 8.11932C73.8796 8.11932 73.603 8.18454 73.3511 8.31499C73.0992 8.44093 72.8968 8.61636 72.7439 8.84126C72.5954 9.06617 72.5167 9.32931 72.5077 9.63068V11.8438C72.5077 12.1766 72.5774 12.4735 72.7169 12.7344C72.8563 12.9953 73.0565 13.1999 73.3174 13.3484C73.5783 13.4968 73.8931 13.571 74.262 13.571C74.5184 13.571 74.7523 13.535 74.9637 13.4631C75.1796 13.3911 75.364 13.2876 75.517 13.1527C75.6699 13.0133 75.7823 12.8468 75.8543 12.6534H79.2549C79.1379 13.3731 78.8613 13.9983 78.425 14.5291C77.9887 15.0554 77.4107 15.4647 76.691 15.7571C75.9758 16.045 75.1391 16.1889 74.181 16.1889ZM84.4991 2.18182V16H80.7747V2.18182H84.4991ZM91.3627 16.1889C90.2561 16.1889 89.3025 15.9775 88.5019 15.5547C87.7057 15.1274 87.0917 14.5156 86.6599 13.7195C86.2326 12.9188 86.0189 11.9607 86.0189 10.8452C86.0189 9.77462 86.2348 8.83901 86.6666 8.03835C87.0985 7.23769 87.7079 6.6147 88.4951 6.16939C89.2823 5.72408 90.2111 5.50142 91.2817 5.50142C92.0644 5.50142 92.7728 5.62287 93.407 5.86577C94.0413 6.10866 94.5833 6.46177 95.0331 6.92507C95.4829 7.38388 95.8293 7.94164 96.0722 8.59837C96.3151 9.25509 96.4365 9.99503 96.4365 10.8182V11.6818H87.1794V9.63068H93.009C93.0045 9.33381 92.928 9.07292 92.7796 8.84801C92.6356 8.61861 92.44 8.44093 92.1926 8.31499C91.9497 8.18454 91.673 8.11932 91.3627 8.11932C91.0613 8.11932 90.7847 8.18454 90.5328 8.31499C90.2809 8.44093 90.0785 8.61636 89.9255 8.84126C89.7771 9.06617 89.6984 9.32931 89.6894 9.63068V11.8438C89.6894 12.1766 89.7591 12.4735 89.8985 12.7344C90.038 12.9953 90.2381 13.1999 90.499 13.3484C90.7599 13.4968 91.0748 13.571 91.4436 13.571C91.7 13.571 91.9339 13.535 92.1453 13.4631C92.3612 13.3911 92.5457 13.2876 92.6986 13.1527C92.8515 13.0133 92.964 12.8468 93.036 12.6534H96.4365C96.3196 13.3731 96.0429 13.9983 95.6066 14.5291C95.1703 15.0554 94.5923 15.4647 93.8726 15.7571C93.1574 16.045 92.3208 16.1889 91.3627 16.1889ZM97.9563 16V5.63636H101.573V7.60653H101.681C101.87 6.87784 102.169 6.34482 102.578 6.00746C102.992 5.6701 103.475 5.50142 104.029 5.50142C104.191 5.50142 104.35 5.51491 104.508 5.5419C104.67 5.56439 104.825 5.59813 104.973 5.64311V8.82102C104.789 8.75805 104.562 8.71082 104.292 8.67933C104.022 8.64785 103.79 8.6321 103.597 8.6321C103.233 8.6321 102.904 8.71532 102.612 8.88175C102.324 9.04368 102.097 9.27308 101.93 9.56996C101.764 9.86233 101.681 10.2064 101.681 10.6023V16H97.9563ZM108.6 16.1619C107.939 16.1619 107.354 16.054 106.846 15.8381C106.342 15.6177 105.946 15.2848 105.658 14.8395C105.37 14.3942 105.226 13.8274 105.226 13.1392C105.226 12.5724 105.323 12.0889 105.517 11.6886C105.71 11.2837 105.98 10.9531 106.326 10.6967C106.673 10.4403 107.075 10.2447 107.534 10.1097C107.997 9.97479 108.497 9.88707 109.032 9.84659C109.612 9.80161 110.078 9.74763 110.428 9.68466C110.784 9.61719 111.04 9.52498 111.198 9.40803C111.355 9.28658 111.434 9.12689 111.434 8.92898V8.90199C111.434 8.6321 111.33 8.42519 111.123 8.28125C110.916 8.13731 110.651 8.06534 110.327 8.06534C109.972 8.06534 109.682 8.14406 109.457 8.30149C109.236 8.45443 109.104 8.69058 109.059 9.00994H105.631C105.676 8.38021 105.876 7.79995 106.232 7.26918C106.592 6.7339 107.116 6.30658 107.804 5.98722C108.492 5.66335 109.351 5.50142 110.381 5.50142C111.123 5.50142 111.789 5.58913 112.378 5.76456C112.968 5.93549 113.469 6.17614 113.883 6.48651C114.297 6.79238 114.612 7.15223 114.828 7.56605C115.048 7.97538 115.158 8.42069 115.158 8.90199V16H111.677V14.5426H111.596C111.389 14.9295 111.137 15.2421 110.84 15.4805C110.548 15.7189 110.213 15.892 109.835 16C109.461 16.108 109.05 16.1619 108.6 16.1619ZM109.814 13.8139C110.098 13.8139 110.363 13.7554 110.611 13.6385C110.863 13.5215 111.067 13.3529 111.225 13.1325C111.382 12.9121 111.461 12.6444 111.461 12.3295V11.4659C111.362 11.5064 111.256 11.5446 111.144 11.5806C111.036 11.6166 110.919 11.6503 110.793 11.6818C110.671 11.7133 110.541 11.7425 110.401 11.7695C110.267 11.7965 110.125 11.8213 109.976 11.8438C109.689 11.8887 109.452 11.9629 109.268 12.0664C109.088 12.1654 108.953 12.2891 108.863 12.4375C108.778 12.5814 108.735 12.7434 108.735 12.9233C108.735 13.2112 108.836 13.4316 109.039 13.5845C109.241 13.7375 109.5 13.8139 109.814 13.8139ZM123.118 5.63636V8.33523H116.29V5.63636H123.118ZM117.612 3.15341H121.337V12.6669C121.337 12.8108 121.362 12.9323 121.411 13.0312C121.461 13.1257 121.537 13.1977 121.641 13.2472C121.744 13.2921 121.877 13.3146 122.039 13.3146C122.151 13.3146 122.282 13.3011 122.43 13.2741C122.583 13.2472 122.695 13.2247 122.767 13.2067L123.307 15.8246C123.141 15.8741 122.902 15.9348 122.592 16.0067C122.286 16.0787 121.922 16.1259 121.499 16.1484C120.644 16.1934 119.927 16.1057 119.347 15.8853C118.766 15.6604 118.33 15.3073 118.038 14.826C117.745 14.3447 117.603 13.742 117.612 13.0178V3.15341ZM129.52 16.1889C128.395 16.1889 127.432 15.9663 126.632 15.521C125.831 15.0711 125.217 14.4459 124.79 13.6452C124.362 12.8401 124.149 11.9067 124.149 10.8452C124.149 9.78362 124.362 8.85251 124.79 8.05185C125.217 7.24669 125.831 6.62145 126.632 6.17614C127.432 5.72633 128.395 5.50142 129.52 5.50142C130.644 5.50142 131.607 5.72633 132.407 6.17614C133.208 6.62145 133.822 7.24669 134.249 8.05185C134.677 8.85251 134.89 9.78362 134.89 10.8452C134.89 11.9067 134.677 12.8401 134.249 13.6452C133.822 14.4459 133.208 15.0711 132.407 15.521C131.607 15.9663 130.644 16.1889 129.52 16.1889ZM129.547 13.4361C129.861 13.4361 130.134 13.3304 130.363 13.119C130.592 12.9076 130.77 12.6062 130.896 12.2148C131.022 11.8235 131.085 11.358 131.085 10.8182C131.085 10.2739 131.022 9.80836 130.896 9.42152C130.77 9.03018 130.592 8.72881 130.363 8.5174C130.134 8.30599 129.861 8.20028 129.547 8.20028C129.214 8.20028 128.928 8.30599 128.69 8.5174C128.451 8.72881 128.269 9.03018 128.143 9.42152C128.017 9.80836 127.954 10.2739 127.954 10.8182C127.954 11.358 128.017 11.8235 128.143 12.2148C128.269 12.6062 128.451 12.9076 128.69 13.119C128.928 13.3304 129.214 13.4361 129.547 13.4361ZM136.402 16V5.63636H140.018V7.60653H140.126C140.315 6.87784 140.614 6.34482 141.023 6.00746C141.437 5.6701 141.921 5.50142 142.474 5.50142C142.636 5.50142 142.796 5.51491 142.953 5.5419C143.115 5.56439 143.27 5.59813 143.419 5.64311V8.82102C143.234 8.75805 143.007 8.71082 142.737 8.67933C142.467 8.64785 142.236 8.6321 142.042 8.6321C141.678 8.6321 141.35 8.71532 141.057 8.88175C140.769 9.04368 140.542 9.27308 140.376 9.56996C140.209 9.86233 140.126 10.2064 140.126 10.6023V16H136.402Z"/></g><defs><linearGradient id="paint0_linear_5_2" x1="1255.68" x2="109.623" y1="0" y2="1849.7" gradientUnits="userSpaceOnUse"><stop stop-color="#33D35E"/><stop offset="1" stop-color="#2AB6D9"/></linearGradient><linearGradient id="paint1_linear_5_2" x1="1263.31" x2="117.256" y1="0" y2="1849.7" gradientUnits="userSpaceOnUse"><stop stop-color="#33D35E"/><stop offset="1" stop-color="#2AB6D9"/></linearGradient><linearGradient id="paint2_linear_5_2" x1="1270.87" x2="124.785" y1="0" y2="1849.64" gradientUnits="userSpaceOnUse"><stop stop-color="#33D35E"/><stop offset="1" stop-color="#2AB6D9"/></linearGradient><clipPath id="clip0_5_2"><rect width="144" height="20" fill="#fff"/></clipPath></defs></svg>